<?xml version="1.0" encoding="utf-8"?>
<svg xmlns="http://www.w3.org/2000/svg" viewBox="0 0 50 50" width="500" height="500">
  <path d="M25 3C18.363281 3 13 8.363281 13 15L13 20L9 20C7.300781 20 6 21.300781 6 23L6 47C6 48.699219 7.300781 50 9 50L41 50C42.699219 50 44 48.699219 44 47L44 23C44 21.300781 42.699219 20 41 20L37 20L37 15C37 8.363281 31.636719 3 25 3 Z M 25 5C30.566406 5 35 9.433594 35 15L35 20L15 20L15 15C15 9.433594 19.433594 5 25 5 Z M 25 30C26.699219 30 28 31.300781 28 33C28 33.898438 27.601563 34.6875 27 35.1875L27 38C27 39.101563 26.101563 40 25 40C23.898438 40 23 39.101563 23 38L23 35.1875C22.398438 34.6875 22 33.898438 22 33C22 31.300781 23.300781 30 25 30Z" fill="#EC3235" />
</svg>