<?xml version="1.0" encoding="utf-8"?>
<svg xmlns="http://www.w3.org/2000/svg" viewBox="0 0 50 50" width="500" height="500">
  <path d="M25 2C12.317 2 2 12.318 2 25C2 37.682 12.317 48 25 48C37.683 48 48 37.682 48 25C48 12.318 37.683 2 25 2 z M 25 8C25.553 8 26 8.448 26 9L26 25C26 25.552 25.553 26 25 26C24.447 26 24 25.552 24 25L24 9C24 8.448 24.447 8 25 8 z M 30.015625 8.8339844C30.145141 8.8238906 30.277203 8.8395625 30.408203 8.8828125C37.341203 11.209813 42 17.687 42 25C42 34.374 34.374 42 25 42C15.626 42 8 34.374 8 25C8 17.687 12.658797 11.210766 19.591797 8.8847656C20.114797 8.7107656 20.681422 8.9896719 20.857422 9.5136719C21.033422 10.037672 20.752516 10.60525 20.228516 10.78125C14.110516 12.83325 10 18.547 10 25C10 33.271 16.729 40 25 40C33.271 40 40 33.271 40 25C40 18.547 35.889484 12.832297 29.771484 10.779297C29.248484 10.603297 28.966578 10.037672 29.142578 9.5136719C29.275328 9.1214219 29.627078 8.8642656 30.015625 8.8339844 z" fill="#EC3235" />
</svg>