<?xml version="1.0" encoding="utf-8"?>
<svg xmlns="http://www.w3.org/2000/svg" viewBox="0 0 50 50" width="500" height="500">
  <path d="M19.875 0.40625C16.195313 0.472656 13.507813 1.601563 11.875 3.75C9.941406 6.296875 9.589844 10.144531 10.8125 15.21875C10.363281 15.769531 10.023438 16.605469 10.15625 17.71875C10.421875 19.921875 11.277344 20.828125 12 21.1875C12.34375 22.917969 13.296875 24.863281 14.21875 25.78125L14.21875 26.25C14.226563 27.265625 14.222656 28.144531 14.125 29.28125C13.511719 30.6875 11.476563 31.511719 9.125 32.4375C5.21875 33.972656 0.363281 35.871094 0 41.9375L-0.0625 43L27.09375 43C28.996094 47.121094 33.171875 50 38 50C44.617188 50 50 44.617188 50 38C50 31.382813 44.617188 26 38 26C33.890625 26 30.257813 28.058594 28.09375 31.21875C27.378906 30.855469 26.796875 30.460938 26.375 30C26.195313 29.804688 26.027344 29.570313 25.90625 29.28125C25.808594 28.144531 25.835938 27.261719 25.84375 26.25L25.84375 25.78125C26.738281 24.867188 27.660156 22.917969 28 21.1875C28.722656 20.824219 29.578125 19.921875 29.84375 17.71875C29.976563 16.628906 29.65625 15.800781 29.21875 15.25C29.800781 13.269531 30.988281 8.144531 28.9375 4.84375C28.078125 3.460938 26.777344 2.589844 25.0625 2.25C24.117188 1.058594 22.304688 0.40625 19.875 0.40625 Z M 38 28C43.515625 28 48 32.484375 48 38C48 43.515625 43.515625 48 38 48C32.484375 48 28 43.515625 28 38C28 32.484375 32.484375 28 38 28 Z M 37 32L37 37L32 37L32 39L37 39L37 44L39 44L39 39L44 39L44 37L39 37L39 32 Z M 26.4375 34.84375C26.371094 35.082031 26.300781 35.320313 26.25 35.5625C26.300781 35.316406 26.371094 35.082031 26.4375 34.84375 Z M 26.0625 36.875C26.027344 37.246094 26 37.617188 26 38C26 37.621094 26.027344 37.246094 26.0625 36.875Z" fill="#EC3235" />
</svg>